<svg id="Camada_1" data-name="Camada 1" xmlns="http://www.w3.org/2000/svg" viewBox="0 0 531.7 966.88"><defs><style>.cls-1{fill:#3267b2;stroke:#3267b2;}.cls-1,.cls-10,.cls-2,.cls-3,.cls-4,.cls-5,.cls-6,.cls-7,.cls-8,.cls-9{stroke-linecap:round;stroke-miterlimit:10;}.cls-2{fill:#30629e;stroke:#30629e;}.cls-3{fill:#4185c9;stroke:#4185c9;}.cls-4{fill:#3974bc;stroke:#3974bc;}.cls-5{fill:#50a7e2;stroke:#50a7e2;}.cls-6{fill:#4795d6;stroke:#4795d6;}.cls-7{fill:#2c5b89;stroke:#2c5b89;}.cls-8{fill:#285275;stroke:#285275;}.cls-9{fill:#224760;stroke:#224760;}.cls-10{fill:#1c3b4c;stroke:#1c3b4c;}</style></defs><title>logo_minimalist</title><polygon class="cls-1" points="82.42 481.93 0.94 602.94 163.9 602.94 82.42 481.93"/><polygon class="cls-2" points="82.42 723.96 163.9 602.94 0.94 602.94 82.42 723.96"/><polygon class="cls-3" points="163.9 360.91 82.42 481.93 245.39 481.93 163.9 360.91"/><polygon class="cls-4" points="163.9 602.94 245.39 481.93 82.42 481.93 163.9 602.94"/><polygon class="cls-5" points="245.39 239.9 163.9 360.91 326.87 360.91 245.39 239.9"/><polygon class="cls-6" points="245.39 481.93 326.87 360.91 163.9 360.91 245.39 481.93"/><polygon class="cls-7" points="163.9 602.94 82.42 723.96 245.39 723.96 163.9 602.94"/><polygon class="cls-8" points="163.9 844.97 245.39 723.96 82.42 723.96 163.9 844.97"/><polygon class="cls-9" points="245.39 723.96 163.9 844.97 326.87 844.97 245.39 723.96"/><polygon class="cls-10" points="245.39 965.98 326.87 844.97 163.9 844.97 245.39 965.98"/><polygon class="cls-1" points="449.28 242.93 530.76 363.94 367.8 363.94 449.28 242.93"/><polygon class="cls-2" points="449.28 484.95 367.8 363.94 530.76 363.94 449.28 484.95"/><polygon class="cls-3" points="367.8 121.91 449.28 242.93 286.31 242.93 367.8 121.91"/><polygon class="cls-4" points="367.8 363.94 286.31 242.93 449.28 242.93 367.8 363.94"/><polygon class="cls-5" points="286.31 0.9 367.8 121.91 204.83 121.91 286.31 0.9"/><polygon class="cls-6" points="286.31 242.93 204.83 121.91 367.8 121.91 286.31 242.93"/><polygon class="cls-7" points="367.8 363.94 449.28 484.95 286.31 484.95 367.8 363.94"/><polygon class="cls-8" points="367.8 605.97 286.31 484.95 449.28 484.95 367.8 605.97"/><polygon class="cls-9" points="286.31 484.95 367.8 605.97 204.83 605.97 286.31 484.95"/><polygon class="cls-10" points="286.31 726.98 204.83 605.97 367.8 605.97 286.31 726.98"/></svg>